<svg version="1.1" id="svg2" xmlns="http://www.w3.org/2000/svg" x="0" y="0" viewBox="0 0 3000 797.4" style="enable-background:new 0 0 3000 797.4" xml:space="preserve"><style>.st0{fill-rule:evenodd;clip-rule:evenodd;fill:#d40000}</style><path id="path822-4" class="st0" d="M552.6 439.5c21.3 18.3 61.7 27.4 71.7 93.3 10.1 65.8-46.2 170.1-129.8 203.6-58.1 23.8-90.7 17.7-143.5 14-22.5-12.8-78.3-21.9-101.4-89.6-12.5-36.6-22.5-81.1-7.7-120.1l7.7-23.8c5.3-29.3 3 8.5 11.3-15.2 1.2-3.7-2.4-1.8 4.7-12.2l23.1-26.2c12.5-12.8 17.8-11 21.9-27.4-14.8-4.3-5.3-4.3-20.2-8.5l18.4-21.9c4.7-6.7 3.6-1.8 5.9-11 17.8 4.3 13 7.9 27.9 12.2-17.2-33.5-5.9-31.7 21.3-61 20.2-21.3 32.6-29.9 59.9-42.7 35.6-16.5 77.7-20.7 124.5-16.5 18.4 1.8 25.5 7.3 45.1 7.9l4.7 3.7c6.5 4.3 1.2 1.2 7.7 4.3 27.9 13.4 76.5 34.7 104.9 37.8 77.1 6.7 42.1-2.4 112.7 0 19.6.6 19 3.7 36.2 4.3-14.8-20.1-33.8-17.7-48.6-29.3 38.5-4.3 36.2-.6 42.1-9.8 3.6-7.3 9.5-12.2 22.5-11.6l11.3 1.8h2.4c.6 0 2.4-.6 3-.6.6 0 1.8-.6 2.4-.6 21.9-6.1 34.4-25.6 59.3-31.1 22.5-5.5 45.7-5.5 71.1-43.3-35 3-95.5 67.7-266.8 9.1-13-4.9-24.3-10.4-36.2-13.4 5.3-10.4 7.7-18.9-.6-31.7-8.3-13.4-32-22.6-47.4-26.2-10.1-4.9-26.1-10.4-39.7-13.4-12.5-3-30.8-4.3-45.1-7.3 7.1-4.9 32-7.3 40.9-7.9 14.2-1.8 32.6-.6 47.4-.6-8.3-11.6-19-9.1-39.7-7.9l-36.2.6c-27.9 7.3-34.4 11.6-72.9 11.6 3.6-10.4 10.1-11.6-3.6-12.8-88.9-9.1-169 43.9-194.5 50 8.3-11 118-72.5 137.6-82.9l120.4-71.3c8.9-6.7 9.5-3 12.5-15.8L555 14.6c-36.8 15.2-126.3 42.7-163 48.2-40.3 6.1 1.8-6.7-56.9 11.6l-21.9 6.7c-22.5 9.1-12.5 11-25.5 15.2-18.4 6.1 0-6.7-16.6 0-13 5.5-4.7 7.3-20.8 11.6 8.3-12.8 19-19.5 31.4-29.9 17.2-14.6 29.1-18.3 33.2-32.3-20.2.6-27.9 10.4-41.5 20.1-13.7 9.2-25 16.5-38.6 26.2-14.8 10.4-19.6 17.1-36.8 25-17.8 7.9-25.5 14-40.9 24.4 4.2-15.8 16-26.2 24.3-41.4-18.4 4.9-4.2 8.5-32.6 28-14.8 10.4-10.7 10.4-16 20.7-11.3 20.1-24.3 18.3-48.6 50-15.4 20.1-39.7 27.4-48 41.4l-3.6 11.6c0 .6 0 1.8-.6 2.4-7.7 15.9-30.2 20.2-32 44.6 17.8.6 28.5 4.3 52.2 4.3 138.7-.6 145.9-71.3 295.3-58.5 20.8 1.8 37.4 4.9 56.3 4.9v7.9c-50.4 1.2-152.4 55.5-185 79.8-49.8 38.4-93.1 90.8-113.8 157.3-36.8 121.9 23.1 214.5 118 263.9 22.5 11.6 69.4 33.5 98.4 34.1 17.8 7.3 176.7 4.9 180.8 3.7 13-4.3 3 .6-.6-3-8.9-8.5-8.3 5.5-5.3-4.9 10.1-1.8 33.8-4.3 40.9-9.8 0-.6 1.2-1.2 1.2-1.8l2.4-4.9c29.6 0 63.4-6.1 83-18.3 20.2-12.8 22.5-7.3 48.6-16.5 28.5-9.1 101.4-34.1 114.4-51.8-25.5 6.1-70 28.6-116.8 28.6.6-.6 2.4-1.8 2.4-1.2.6.6 2.4-1.2 3-1.8 26.7-14.6 11.9-8.5 25.5-18.9 3.6-3 9.5-5.5 13.6-7.3-.6-12.8-1.8-14.6-4.2-25 14.2-9.8 12.5-5.5 16-20.1l1.2-7.3c4.2-22.6 11.3-28 32.6-54.2l59.3-70.1c-1.8-18.3 128.7-67 132.8-117.6-10.7 8.5-8.3 15.2-31.4 33.5C883.4 453 868 453 819.4 452.3c-28.5 0-38.5 4.3-64.6 4.3 11.9-17.7 10.1.6 16-20.7-20.2 4.9-26.1 8.5-52.2 8.5-61.1.6-67.6-40.8-142.9-45.7-69.4-1.2-151.2-15.8-226.5 35.4-115.6 78.6-71.7 185.3 10.1 188.9 22.5.6 39.7-6.7 51-18.3 42.1-45.1-8.9-85.3-13.6-91.4-45.1-65.8 37.9-95.7 125.7-79.2 13 1.7 18.9 4.8 30.2 5.4z"/><path id="path824-5" class="st0" d="M1307.1 185.1c-54.5.7-109.4 20.3-147.1 60.2-108.6 114.5-72.9 400.9 142.9 400.9 43 0 68.5-5.1 100.6-23.3 24.8-13.9 31.3-19 45.2-39.4l13.1-16.8 5.8 69.3h33.5V407.8h-188.8v40.1h149.4c-4.4 174.2-192.5 196.1-266.8 107.9-79.5-94.8-59-293.8 75.1-324.4 94-21.1 175 39.4 176.4 102.1h49.6c-8.1-98-98-149.5-188.9-148.4zm1238.6 120.4c-18-.3-36.1 2.5-52.3 7.6-35.7 10.9-35 24.1-59.1 40.1v-39.4h-44.5V636h44.5V447.9c0-128.3 173.5-140.7 173.5-24.8V636h45.2V418c0-82-53.3-111.5-107.3-112.5zm-853.6 0c-60.5.7-126 28.7-126 112.5h44.5c0-95.5 144.3-98.4 160.4-26.3 24.8 107.9-220.2 3.7-220.2 160.4 0 65.6 52.5 94 119.5 94 54.7 0 78.7-25.5 104.2-54.7 10.9 48.8 13.1 44.5 74.4 44.5v-39.4c-28.4 6.6-35-3.6-35-39.4-2.2-100.6 18.2-191-33.5-229.6-17.5-13-52-22.4-88.3-22zm1157.8.2c-61.1-1-132.8 24.7-132.8 112.4h45.2c0-106.4 158.2-86 158.2-24.8V418c0 62-218-10.2-218 134.1 0 109.3 146.5 114.4 201.9 62.7 13.9-12.4 7.3-13.1 21.1-23.3 4.4 51.8 31.3 44.5 74.4 44.5v-39.4c-19 4.4-10.2 4.4-29.2 0-27-113.7 33.5-233.3-51.8-276.3-15.5-8.2-41.2-14.2-69-14.6zm-653.9.8c-81.6.6-138.6 65.8-138.6 156v40.1c0 192.5 282.8 183 282.8 24.8-74.4 0-22.6 3.6-67.8 51-49.6 51-142.2 35.7-166.2-45.2-5.1-16-2.2-30.6-9.5-45.9h248.6c0-94-32.1-170.6-132.7-180.1-5.6-.5-11.1-.8-16.6-.7zm-143.7 2.2c-45.9 0-75.8 10.9-103.5 40.8l-20.4 28.4v-64.1h-40.1V636h44.5V457.4c0-61.2 48.8-104.2 119.5-104.2v-44.5zm148.7 35c59.8 0 94.8 53.2 99.1 109.4h-198.3c.1-56.2 43.8-109.4 99.2-109.4zm-426.5 123.9c0 44.5-2.2 74.4-19.7 99.9-42.3 60.5-159.7 48.1-159.7-15.3.1-79.5 125.5-56.2 179.4-84.6zm1146 5.1c0 49.6 6.6 64.9-17.5 96.2-36.4 49.6-156 60.5-156-27 0-30.6 42.3-46.7 71.4-52.5l102.1-16.7z"/></svg>